<svg width="56" height="56" viewBox="0 0 56 56" fill="none" xmlns="http://www.w3.org/2000/svg">
<g clip-path="url(#clip0)">
<path d="M48.7296 0.238037H6.66226C3.11187 0.238037 0.223389 3.12652 0.223389 6.67691V48.7442C0.223389 52.2946 3.11187 55.1831 6.66226 55.1831H48.7296C52.28 55.1831 55.1684 52.2946 55.1684 48.7442V6.67691C55.1684 3.12652 52.28 0.238037 48.7296 0.238037ZM50.8759 48.7442C50.8759 49.9277 49.913 50.8905 48.7296 50.8905H36.4957V33.3982H43.1267L44.2224 26.7447H36.4957V22.1302C36.4957 20.3085 37.8935 18.9108 39.7151 18.9108H44.115V12.2573H39.7151C34.2504 12.2573 29.8446 16.684 29.8446 22.1489V26.7447H23.4033V33.3982H29.8446V50.8905H6.66226C5.4788 50.8905 4.51597 49.9277 4.51597 48.7442V6.67691C4.51597 5.49345 5.4788 4.53062 6.66226 4.53062H48.7296C49.913 4.53062 50.8759 5.49345 50.8759 6.67691V48.7442Z" fill="#222222"/>
</g>
<defs>
<clipPath id="clip0">
<rect width="54.9451" height="54.9451" fill="white" transform="translate(0.223389 0.238037)"/>
</clipPath>
</defs>
</svg>
