<svg width="220" height="42" viewBox="0 0 220 42" fill="none" xmlns="http://www.w3.org/2000/svg">
<path d="M17.784 18.592H7.524V34H3.024V14.776H17.784V18.592ZM20.6342 34.252C19.8182 34.252 19.1222 33.976 18.5462 33.424C17.9702 32.848 17.6822 32.128 17.6822 31.264C17.6822 30.376 17.9582 29.656 18.5102 29.104C19.0862 28.552 19.7942 28.276 20.6342 28.276C21.4742 28.276 22.1702 28.552 22.7222 29.104C23.2982 29.656 23.5862 30.376 23.5862 31.264C23.5862 32.128 23.2982 32.848 22.7222 33.424C22.1462 33.976 21.4502 34.252 20.6342 34.252ZM61.6565 34L61.6205 17.296L53.3405 31.12H51.2525L42.9725 17.512V34H38.5445V8.8H42.3965L52.3685 25.468L62.2325 8.8H66.0485L66.1205 34H61.6565ZM81.2365 34.252C79.2925 34.252 77.5405 33.832 75.9805 32.992C74.4205 32.152 73.1965 30.988 72.3085 29.5C71.4445 27.988 71.0125 26.284 71.0125 24.388C71.0125 22.492 71.4445 20.8 72.3085 19.312C73.1965 17.824 74.4205 16.66 75.9805 15.82C77.5405 14.98 79.2925 14.56 81.2365 14.56C83.2045 14.56 84.9685 14.98 86.5285 15.82C88.0885 16.66 89.3005 17.824 90.1645 19.312C91.0525 20.8 91.4965 22.492 91.4965 24.388C91.4965 26.284 91.0525 27.988 90.1645 29.5C89.3005 30.988 88.0885 32.152 86.5285 32.992C84.9685 33.832 83.2045 34.252 81.2365 34.252ZM81.2365 30.4C82.8925 30.4 84.2605 29.848 85.3405 28.744C86.4205 27.64 86.9605 26.188 86.9605 24.388C86.9605 22.588 86.4205 21.136 85.3405 20.032C84.2605 18.928 82.8925 18.376 81.2365 18.376C79.5805 18.376 78.2125 18.928 77.1325 20.032C76.0765 21.136 75.5485 22.588 75.5485 24.388C75.5485 26.188 76.0765 27.64 77.1325 28.744C78.2125 29.848 79.5805 30.4 81.2365 30.4ZM104.69 34.252C102.698 34.252 100.91 33.832 99.326 32.992C97.742 32.152 96.506 30.988 95.618 29.5C94.73 27.988 94.286 26.284 94.286 24.388C94.286 22.492 94.73 20.8 95.618 19.312C96.506 17.824 97.73 16.66 99.29 15.82C100.874 14.98 102.674 14.56 104.69 14.56C106.586 14.56 108.242 14.944 109.658 15.712C111.098 16.48 112.178 17.584 112.898 19.024L109.442 21.04C108.89 20.152 108.194 19.492 107.354 19.06C106.538 18.604 105.638 18.376 104.654 18.376C102.974 18.376 101.582 18.928 100.478 20.032C99.374 21.112 98.822 22.564 98.822 24.388C98.822 26.212 99.362 27.676 100.442 28.78C101.546 29.86 102.95 30.4 104.654 30.4C105.638 30.4 106.538 30.184 107.354 29.752C108.194 29.296 108.89 28.624 109.442 27.736L112.898 29.752C112.154 31.192 111.062 32.308 109.622 33.1C108.206 33.868 106.562 34.252 104.69 34.252ZM124.852 26.296H121.36V34H116.86V14.776H121.36V22.552H124.96L130.648 14.776H135.472L128.488 24.028L135.94 34H130.648L124.852 26.296ZM153.046 23.992C155.422 24.712 156.61 26.248 156.61 28.6C156.61 30.328 155.962 31.66 154.666 32.596C153.37 33.532 151.45 34 148.906 34H139.114V14.776H148.51C150.862 14.776 152.698 15.208 154.018 16.072C155.338 16.936 155.998 18.16 155.998 19.744C155.998 20.728 155.734 21.58 155.206 22.3C154.702 23.02 153.982 23.584 153.046 23.992ZM143.398 22.804H148.114C150.442 22.804 151.606 22 151.606 20.392C151.606 18.832 150.442 18.052 148.114 18.052H143.398V22.804ZM148.546 30.724C151.018 30.724 152.254 29.92 152.254 28.312C152.254 27.472 151.966 26.848 151.39 26.44C150.814 26.008 149.914 25.792 148.69 25.792H143.398V30.724H148.546ZM168.567 14.56C171.399 14.56 173.559 15.244 175.047 16.612C176.559 17.956 177.315 19.996 177.315 22.732V34H173.067V31.66C172.515 32.5 171.723 33.148 170.691 33.604C169.683 34.036 168.459 34.252 167.019 34.252C165.579 34.252 164.319 34.012 163.239 33.532C162.159 33.028 161.319 32.344 160.719 31.48C160.143 30.592 159.855 29.596 159.855 28.492C159.855 26.764 160.491 25.384 161.763 24.352C163.059 23.296 165.087 22.768 167.847 22.768H172.815V22.48C172.815 21.136 172.407 20.104 171.591 19.384C170.799 18.664 169.611 18.304 168.027 18.304C166.947 18.304 165.879 18.472 164.823 18.808C163.791 19.144 162.915 19.612 162.195 20.212L160.431 16.936C161.439 16.168 162.651 15.58 164.067 15.172C165.483 14.764 166.983 14.56 168.567 14.56ZM167.955 30.976C169.083 30.976 170.079 30.724 170.943 30.22C171.831 29.692 172.455 28.948 172.815 27.988V25.756H168.171C165.579 25.756 164.283 26.608 164.283 28.312C164.283 29.128 164.607 29.776 165.255 30.256C165.903 30.736 166.803 30.976 167.955 30.976Z" fill="#B18AFF"/>
<path d="M204.458 31L191.071 20.5L217.845 20.5L204.458 31Z" fill="#B18AFF"/>
</svg>
