<svg width="60" height="60" viewBox="0 0 60 60" fill="none" xmlns="http://www.w3.org/2000/svg">
<path d="M44.2798 0.476074H16.1961C7.38084 0.476074 0.476074 7.38084 0.476074 16.1961V44.2798C0.476074 53.0951 7.38084 59.9999 16.1961 59.9999H44.2798C53.0951 59.9999 59.9999 53.0951 59.9999 44.2798V16.1961C59.9999 7.38084 53.0932 0.476074 44.2798 0.476074ZM56.1596 44.2798C56.1596 50.9427 50.9407 56.1596 44.2798 56.1596H16.1961C9.53521 56.1596 4.31632 50.9407 4.31632 44.2798V16.1961C4.31632 9.53521 9.53521 4.31632 16.1961 4.31632H44.2798C50.9427 4.31632 56.1596 9.53521 56.1596 16.1961V44.2798Z" fill="#222222"/>
<path d="M48.9574 15.674C48.3411 15.2228 47.5154 15.1844 46.8568 15.5684C46.2001 15.9543 44.7447 16.1444 43.5772 16.298C43.3353 16.3307 43.0972 16.3614 42.8668 16.3941C41.2328 15.0384 39.1456 14.2781 36.9931 14.2781C32.1448 14.2781 28.1663 18.03 27.8841 22.7497C23.487 22.0085 19.4605 19.7159 16.6072 16.2712C16.1828 15.7566 15.5242 15.505 14.8599 15.5914C14.1994 15.6836 13.6348 16.1118 13.3679 16.7224C13.2451 17.0027 12.1736 19.6391 12.1736 26.1598C12.1736 31.8069 16.6302 35.9563 19.6871 38.1394C17.5961 39.0899 15.1863 39.4394 12.8975 39.1859C12.0027 39.0899 11.1656 39.616 10.8699 40.459C10.5742 41.3038 10.9006 42.2408 11.6571 42.7189C15.2669 44.9962 19.4394 46.2001 23.7251 46.2001C37.4885 46.2001 45.818 35.3879 46.1272 24.7274C46.5227 24.1533 47.2773 23.0358 48.5523 21.0753C49.063 20.2861 49.4912 18.5849 49.7005 17.6421C49.8676 16.8971 49.5738 16.1233 48.9574 15.674ZM42.6633 22.982C42.4271 23.3084 42.2984 23.704 42.2984 24.1072C42.2984 31.6859 36.5361 42.3599 23.727 42.3599C22.5692 42.3599 21.4209 42.2543 20.2957 42.0469C21.7973 41.4785 23.2163 40.6855 24.52 39.6813C25.0423 39.28 25.3207 38.6348 25.2593 37.9801C25.1978 37.3253 24.8042 36.7454 24.2147 36.4478C24.1321 36.4056 16.0158 32.1371 16.0158 26.1617C16.0158 24.159 16.1233 22.5845 16.2654 21.3864C20.0346 24.6314 24.8311 26.5726 29.8791 26.8222C29.9175 26.8242 29.9578 26.8261 29.9943 26.8242C31.1118 26.7915 31.9336 25.9716 31.9336 24.904C31.9336 24.6391 31.8798 24.3875 31.7819 24.1571C31.7339 23.8691 31.709 23.5792 31.709 23.2892C31.709 20.4378 34.0784 18.1183 36.9931 18.1183C38.4563 18.1183 39.8637 18.7174 40.8564 19.76C41.3096 20.2324 41.972 20.4455 42.6114 20.3207C43.0473 20.2381 43.5504 20.1729 44.0784 20.1037C44.2666 20.0788 44.4567 20.0538 44.6506 20.0269C43.2086 22.2235 42.6882 22.9474 42.6633 22.982Z" fill="#222222"/>
</svg>
