<svg width="56" height="55" viewBox="0 0 56 55" fill="none" xmlns="http://www.w3.org/2000/svg">
<g clip-path="url(#clip0)">
<path d="M55.0306 16.154C54.9019 13.2346 54.4298 11.2275 53.7535 9.48829C53.0558 7.64221 51.9825 5.98941 50.5762 4.61543C49.2022 3.22007 47.5385 2.13581 45.7138 1.44903C43.9646 0.772732 41.968 0.300623 39.0485 0.171905C36.1073 0.0322845 35.1735 0 27.7137 0C20.2539 0 19.3202 0.0322845 16.3898 0.161003C13.4704 0.289722 11.4633 0.76225 9.72455 1.43813C7.87805 2.13581 6.22525 3.20916 4.85127 4.61543C3.45591 5.98941 2.37207 7.65311 1.68487 9.47781C1.00857 11.2275 0.536463 13.2237 0.407744 16.1431C0.268124 19.0843 0.23584 20.0181 0.23584 27.4779C0.23584 34.9377 0.268124 35.8714 0.396843 38.8018C0.525562 41.7212 0.99809 43.7283 1.67439 45.4675C2.37207 47.3136 3.45591 48.9664 4.85127 50.3404C6.22525 51.7357 7.88895 52.82 9.71365 53.5068C11.4633 54.1831 13.4595 54.6552 16.3794 54.7839C19.3093 54.913 20.2434 54.9449 27.7032 54.9449C35.1631 54.9449 36.0968 54.913 39.0271 54.7839C41.9466 54.6552 43.9537 54.1831 45.6924 53.5068C49.385 52.0791 52.3045 49.1597 53.7321 45.4675C54.408 43.7178 54.8805 41.7212 55.0092 38.8018C55.138 35.8714 55.1702 34.9377 55.1702 27.4779C55.1702 20.0181 55.1593 19.0843 55.0306 16.154ZM50.0827 38.5871C49.9645 41.2705 49.5137 42.7195 49.1381 43.6856C48.2148 46.0792 46.3151 47.979 43.9214 48.9022C42.9554 49.2779 41.4959 49.7286 38.823 49.8465C35.9249 49.9756 35.0557 50.0075 27.7246 50.0075C20.3935 50.0075 19.5135 49.9756 16.6259 49.8465C13.9425 49.7286 12.4935 49.2779 11.5275 48.9022C10.3363 48.462 9.25202 47.7643 8.37196 46.852C7.4596 45.961 6.76192 44.8876 6.32168 43.6965C5.94601 42.7304 5.49528 41.2705 5.37746 38.598C5.24832 35.7 5.21646 34.8304 5.21646 27.4993C5.21646 20.1682 5.24832 19.2881 5.37746 16.401C5.49528 13.7176 5.94601 12.2685 6.32168 11.3025C6.76192 10.1109 7.4596 9.02709 8.38286 8.1466C9.27341 7.23425 10.3468 6.53657 11.5384 6.09674C12.5044 5.72107 13.9643 5.27034 16.6368 5.15211C19.5348 5.02339 20.4044 4.9911 27.7351 4.9911C35.0771 4.9911 35.9463 5.02339 38.8339 5.15211C41.5172 5.27034 42.9663 5.72107 43.9323 6.09674C45.1235 6.53657 46.2077 7.23425 47.0878 8.1466C48.0001 9.03757 48.6978 10.1109 49.1381 11.3025C49.5137 12.2685 49.9645 13.728 50.0827 16.401C50.2114 19.299 50.2437 20.1682 50.2437 27.4993C50.2437 34.8304 50.2114 35.6891 50.0827 38.5871Z" fill="#222222"/>
<path d="M27.7135 13.3633C19.9212 13.3633 13.5989 19.6852 13.5989 27.4779C13.5989 35.2706 19.9212 41.5925 27.7135 41.5925C35.5062 41.5925 41.8281 35.2706 41.8281 27.4779C41.8281 19.6852 35.5062 13.3633 27.7135 13.3633ZM27.7135 36.6337C22.6582 36.6337 18.5577 32.5336 18.5577 27.4779C18.5577 22.4222 22.6582 18.3221 27.7135 18.3221C32.7692 18.3221 36.8693 22.4222 36.8693 27.4779C36.8693 32.5336 32.7692 36.6337 27.7135 36.6337Z" fill="#222222"/>
<path d="M45.682 12.8051C45.682 14.6248 44.2065 16.1002 42.3864 16.1002C40.5668 16.1002 39.0913 14.6248 39.0913 12.8051C39.0913 10.985 40.5668 9.51001 42.3864 9.51001C44.2065 9.51001 45.682 10.985 45.682 12.8051Z" fill="#222222"/>
</g>
<defs>
<clipPath id="clip0">
<rect width="54.9451" height="54.9451" fill="white" transform="translate(0.13916)"/>
</clipPath>
</defs>
</svg>
