<svg width="332" height="105" viewBox="0 0 332 105" fill="none" xmlns="http://www.w3.org/2000/svg">
<path d="M50.3624 27.0431H9.57905C5.31498 27.0431 1.8457 30.5117 1.8457 34.7764V59.735C1.8457 63.9901 5.29987 67.4532 9.55158 67.4683V78.7942L25.8282 67.4683H50.3624C54.6264 67.4683 58.0957 63.999 58.0957 59.735V34.7764C58.0957 30.5117 54.6264 27.0431 50.3624 27.0431ZM54.7998 59.735C54.7998 62.1815 52.8092 64.1724 50.3624 64.1724H24.7941L12.8475 72.4856V64.1724H9.57905C7.13219 64.1724 5.1416 62.1815 5.1416 59.735V34.7764C5.1416 32.3292 7.13219 30.339 9.57905 30.339H50.3624C52.8092 30.339 54.7998 32.3292 54.7998 34.7764V59.735Z" fill="#939393"/>
<path d="M50.3624 27.0431H9.57905C5.31498 27.0431 1.8457 30.5117 1.8457 34.7764V59.735C1.8457 63.9901 5.29987 67.4532 9.55158 67.4683V78.7942L25.8282 67.4683H50.3624C54.6264 67.4683 58.0957 63.999 58.0957 59.735V34.7764C58.0957 30.5117 54.6264 27.0431 50.3624 27.0431ZM54.7998 59.735C54.7998 62.1815 52.8092 64.1724 50.3624 64.1724H24.7941L12.8475 72.4856V64.1724H9.57905C7.13219 64.1724 5.1416 62.1815 5.1416 59.735V34.7764C5.1416 32.3292 7.13219 30.339 9.57905 30.339H50.3624C52.8092 30.339 54.7998 32.3292 54.7998 34.7764V59.735Z" stroke="#939393"/>
<path d="M16.9006 38.6889H43.0405V41.9848H16.9006V38.6889Z" fill="#939393"/>
<path d="M16.9006 45.7202H43.0405V49.0161H16.9006V45.7202Z" fill="#939393"/>
<path d="M16.9006 52.7514H43.0405V56.0473H16.9006V52.7514Z" fill="#939393"/>
<rect y="23" width="60" height="60" stroke="#B18AFF"/>
<path d="M122.284 69.76V79H78.94V71.692L102.292 49.516C104.924 46.996 106.688 44.812 107.584 42.964C108.536 41.06 109.012 39.184 109.012 37.336C109.012 34.592 108.088 32.492 106.24 31.036C104.392 29.58 101.676 28.852 98.092 28.852C92.1 28.852 87.508 30.896 84.316 34.984L76.672 29.104C78.968 26.024 82.048 23.644 85.912 21.964C89.832 20.228 94.2 19.36 99.016 19.36C105.4 19.36 110.496 20.872 114.304 23.896C118.112 26.92 120.016 31.036 120.016 36.244C120.016 39.436 119.344 42.432 118 45.232C116.656 48.032 114.08 51.224 110.272 54.808L94.564 69.76H122.284ZM146.983 42.964C155.271 42.964 161.403 44.588 165.379 47.836C169.355 51.028 171.343 55.396 171.343 60.94C171.343 64.468 170.475 67.66 168.739 70.516C167.003 73.372 164.399 75.64 160.927 77.32C157.455 79 153.171 79.84 148.075 79.84C143.875 79.84 139.815 79.252 135.895 78.076C131.975 76.844 128.671 75.164 125.983 73.036L130.603 64.552C132.787 66.344 135.391 67.772 138.415 68.836C141.495 69.844 144.659 70.348 147.907 70.348C151.771 70.348 154.795 69.564 156.979 67.996C159.219 66.372 160.339 64.16 160.339 61.36C160.339 58.336 159.135 56.068 156.727 54.556C154.375 52.988 150.315 52.204 144.547 52.204H130.351L133.375 20.2H167.899V29.356H142.615L141.355 42.964H146.983ZM215.777 48.088C218.857 49.488 221.209 51.392 222.833 53.8C224.513 56.152 225.353 58.924 225.353 62.116C225.353 65.7 224.345 68.836 222.329 71.524C220.369 74.212 217.569 76.284 213.929 77.74C210.289 79.14 206.061 79.84 201.245 79.84C196.429 79.84 192.201 79.14 188.561 77.74C184.977 76.284 182.205 74.212 180.245 71.524C178.285 68.836 177.305 65.7 177.305 62.116C177.305 58.924 178.117 56.152 179.741 53.8C181.365 51.392 183.689 49.488 186.713 48.088C184.361 46.8 182.541 45.12 181.253 43.048C180.021 40.92 179.405 38.484 179.405 35.74C179.405 32.436 180.301 29.552 182.093 27.088C183.941 24.624 186.517 22.72 189.821 21.376C193.125 20.032 196.933 19.36 201.245 19.36C205.613 19.36 209.449 20.032 212.753 21.376C216.057 22.72 218.633 24.624 220.481 27.088C222.329 29.552 223.253 32.436 223.253 35.74C223.253 38.484 222.609 40.892 221.321 42.964C220.033 45.036 218.185 46.744 215.777 48.088ZM201.245 27.928C197.829 27.928 195.113 28.656 193.097 30.112C191.137 31.568 190.157 33.612 190.157 36.244C190.157 38.764 191.137 40.78 193.097 42.292C195.113 43.748 197.829 44.476 201.245 44.476C204.717 44.476 207.461 43.748 209.477 42.292C211.493 40.78 212.501 38.764 212.501 36.244C212.501 33.612 211.465 31.568 209.393 30.112C207.377 28.656 204.661 27.928 201.245 27.928ZM201.245 71.272C205.277 71.272 208.469 70.432 210.821 68.752C213.173 67.072 214.349 64.748 214.349 61.78C214.349 58.868 213.173 56.572 210.821 54.892C208.469 53.212 205.277 52.372 201.245 52.372C197.213 52.372 194.049 53.212 191.753 54.892C189.457 56.572 188.309 58.868 188.309 61.78C188.309 64.748 189.457 67.072 191.753 68.752C194.049 70.432 197.213 71.272 201.245 71.272ZM252.262 19.36C260.326 19.36 266.57 21.88 270.994 26.92C275.474 31.96 277.714 39.184 277.714 48.592C277.714 55.2 276.51 60.856 274.102 65.56C271.694 70.208 268.306 73.764 263.938 76.228C259.626 78.636 254.614 79.84 248.902 79.84C245.878 79.84 243.022 79.532 240.334 78.916C237.702 78.244 235.406 77.292 233.446 76.06L237.478 67.828C240.39 69.732 244.114 70.684 248.65 70.684C254.306 70.684 258.73 68.948 261.922 65.476C265.114 62.004 266.71 56.992 266.71 50.44V50.356C264.974 52.372 262.762 53.912 260.074 54.976C257.386 55.984 254.362 56.488 251.002 56.488C247.138 56.488 243.666 55.76 240.586 54.304C237.506 52.792 235.098 50.664 233.362 47.92C231.626 45.176 230.758 42.012 230.758 38.428C230.758 34.62 231.71 31.288 233.614 28.432C235.518 25.52 238.094 23.28 241.342 21.712C244.59 20.144 248.23 19.36 252.262 19.36ZM253.102 47.92C256.63 47.92 259.486 46.968 261.67 45.064C263.91 43.16 265.03 40.752 265.03 37.84C265.03 34.984 263.938 32.632 261.754 30.784C259.626 28.88 256.658 27.928 252.85 27.928C249.434 27.928 246.662 28.852 244.534 30.7C242.406 32.492 241.342 34.9 241.342 37.924C241.342 41.004 242.406 43.44 244.534 45.232C246.662 47.024 249.518 47.92 253.102 47.92ZM81.886 100.126C80.89 100.126 79.996 99.916 79.204 99.496C78.412 99.076 77.794 98.494 77.35 97.75C76.906 96.994 76.684 96.142 76.684 95.194C76.684 94.246 76.906 93.4 77.35 92.656C77.794 91.912 78.406 91.33 79.186 90.91C79.978 90.49 80.878 90.28 81.886 90.28C82.834 90.28 83.662 90.472 84.37 90.856C85.09 91.24 85.63 91.792 85.99 92.512L84.262 93.52C83.986 93.076 83.638 92.746 83.218 92.53C82.81 92.302 82.36 92.188 81.868 92.188C81.028 92.188 80.332 92.464 79.78 93.016C79.228 93.556 78.952 94.282 78.952 95.194C78.952 96.106 79.222 96.838 79.762 97.39C80.314 97.93 81.016 98.2 81.868 98.2C82.36 98.2 82.81 98.092 83.218 97.876C83.638 97.648 83.986 97.312 84.262 96.868L85.99 97.876C85.618 98.596 85.072 99.154 84.352 99.55C83.644 99.934 82.822 100.126 81.886 100.126ZM92.1144 100.126C91.1424 100.126 90.2664 99.916 89.4864 99.496C88.7064 99.076 88.0944 98.494 87.6504 97.75C87.2184 96.994 87.0024 96.142 87.0024 95.194C87.0024 94.246 87.2184 93.4 87.6504 92.656C88.0944 91.912 88.7064 91.33 89.4864 90.91C90.2664 90.49 91.1424 90.28 92.1144 90.28C93.0984 90.28 93.9804 90.49 94.7604 90.91C95.5404 91.33 96.1464 91.912 96.5784 92.656C97.0224 93.4 97.2444 94.246 97.2444 95.194C97.2444 96.142 97.0224 96.994 96.5784 97.75C96.1464 98.494 95.5404 99.076 94.7604 99.496C93.9804 99.916 93.0984 100.126 92.1144 100.126ZM92.1144 98.2C92.9424 98.2 93.6264 97.924 94.1664 97.372C94.7064 96.82 94.9764 96.094 94.9764 95.194C94.9764 94.294 94.7064 93.568 94.1664 93.016C93.6264 92.464 92.9424 92.188 92.1144 92.188C91.2864 92.188 90.6024 92.464 90.0624 93.016C89.5344 93.568 89.2704 94.294 89.2704 95.194C89.2704 96.094 89.5344 96.82 90.0624 97.372C90.6024 97.924 91.2864 98.2 92.1144 98.2ZM103.751 100.126C102.779 100.126 101.903 99.916 101.123 99.496C100.343 99.076 99.7311 98.494 99.2871 97.75C98.8551 96.994 98.6391 96.142 98.6391 95.194C98.6391 94.246 98.8551 93.4 99.2871 92.656C99.7311 91.912 100.343 91.33 101.123 90.91C101.903 90.49 102.779 90.28 103.751 90.28C104.735 90.28 105.617 90.49 106.397 90.91C107.177 91.33 107.783 91.912 108.215 92.656C108.659 93.4 108.881 94.246 108.881 95.194C108.881 96.142 108.659 96.994 108.215 97.75C107.783 98.494 107.177 99.076 106.397 99.496C105.617 99.916 104.735 100.126 103.751 100.126ZM103.751 98.2C104.579 98.2 105.263 97.924 105.803 97.372C106.343 96.82 106.613 96.094 106.613 95.194C106.613 94.294 106.343 93.568 105.803 93.016C105.263 92.464 104.579 92.188 103.751 92.188C102.923 92.188 102.239 92.464 101.699 93.016C101.171 93.568 100.907 94.294 100.907 95.194C100.907 96.094 101.171 96.82 101.699 97.372C102.239 97.924 102.923 98.2 103.751 98.2ZM116.306 90.856C117.218 90.856 118.022 91.054 118.718 91.45C119.414 91.834 119.954 92.374 120.338 93.07C120.734 93.766 120.932 94.564 120.932 95.464C120.932 96.388 120.716 97.21 120.284 97.93C119.852 98.638 119.246 99.19 118.466 99.586C117.686 99.982 116.798 100.18 115.802 100.18C114.134 100.18 112.844 99.628 111.932 98.524C111.02 97.42 110.564 95.83 110.564 93.754C110.564 91.822 110.978 90.292 111.806 89.164C112.634 88.036 113.9 87.292 115.604 86.932L120.068 85.978L120.392 87.994L116.342 88.822C115.178 89.062 114.308 89.47 113.732 90.046C113.156 90.622 112.82 91.432 112.724 92.476C113.156 91.96 113.678 91.564 114.29 91.288C114.902 91 115.574 90.856 116.306 90.856ZM115.856 98.362C116.684 98.362 117.35 98.098 117.854 97.57C118.37 97.03 118.628 96.346 118.628 95.518C118.628 94.69 118.37 94.024 117.854 93.52C117.35 93.016 116.684 92.764 115.856 92.764C115.016 92.764 114.338 93.016 113.822 93.52C113.306 94.024 113.048 94.69 113.048 95.518C113.048 96.358 113.306 97.042 113.822 97.57C114.35 98.098 115.028 98.362 115.856 98.362ZM137.276 90.388V100H123.11V90.388H125.36V98.092H129.086V90.388H131.336V98.092H135.026V90.388H137.276ZM138.662 98.092V101.98H136.556V100H134.954V98.092H138.662ZM149.301 95.248C149.301 95.404 149.289 95.626 149.265 95.914H141.723C141.855 96.622 142.197 97.186 142.749 97.606C143.313 98.014 144.009 98.218 144.837 98.218C145.893 98.218 146.763 97.87 147.447 97.174L148.653 98.56C148.221 99.076 147.675 99.466 147.015 99.73C146.355 99.994 145.611 100.126 144.783 100.126C143.727 100.126 142.797 99.916 141.993 99.496C141.189 99.076 140.565 98.494 140.121 97.75C139.689 96.994 139.473 96.142 139.473 95.194C139.473 94.258 139.683 93.418 140.103 92.674C140.535 91.918 141.129 91.33 141.885 90.91C142.641 90.49 143.493 90.28 144.441 90.28C145.377 90.28 146.211 90.49 146.943 90.91C147.687 91.318 148.263 91.9 148.671 92.656C149.091 93.4 149.301 94.264 149.301 95.248ZM144.441 92.08C143.721 92.08 143.109 92.296 142.605 92.728C142.113 93.148 141.813 93.712 141.705 94.42H147.159C147.063 93.724 146.769 93.16 146.277 92.728C145.785 92.296 145.173 92.08 144.441 92.08ZM151.762 90.388H154.012V94.294H158.854V90.388H161.104V100H158.854V96.202H154.012V100H151.762V90.388ZM164.119 90.388H166.369V96.724L171.679 90.388H173.731V100H171.481V93.664L166.189 100H164.119V90.388ZM176.758 90.388H179.008V96.724L184.318 90.388H186.37V100H184.12V93.664L178.828 100H176.758V90.388ZM181.42 89.254C180.448 89.254 179.704 89.032 179.188 88.588C178.684 88.132 178.426 87.472 178.414 86.608H179.908C179.92 87.04 180.052 87.382 180.304 87.634C180.568 87.886 180.934 88.012 181.402 88.012C181.858 88.012 182.218 87.886 182.482 87.634C182.758 87.382 182.902 87.04 182.914 86.608H184.444C184.432 87.472 184.168 88.132 183.652 88.588C183.136 89.032 182.392 89.254 181.42 89.254ZM198.655 100.126C197.683 100.126 196.807 99.916 196.027 99.496C195.247 99.076 194.635 98.494 194.191 97.75C193.759 96.994 193.543 96.142 193.543 95.194C193.543 94.246 193.759 93.4 194.191 92.656C194.635 91.912 195.247 91.33 196.027 90.91C196.807 90.49 197.683 90.28 198.655 90.28C199.639 90.28 200.521 90.49 201.301 90.91C202.081 91.33 202.687 91.912 203.119 92.656C203.563 93.4 203.785 94.246 203.785 95.194C203.785 96.142 203.563 96.994 203.119 97.75C202.687 98.494 202.081 99.076 201.301 99.496C200.521 99.916 199.639 100.126 198.655 100.126ZM198.655 98.2C199.483 98.2 200.167 97.924 200.707 97.372C201.247 96.82 201.517 96.094 201.517 95.194C201.517 94.294 201.247 93.568 200.707 93.016C200.167 92.464 199.483 92.188 198.655 92.188C197.827 92.188 197.143 92.464 196.603 93.016C196.075 93.568 195.811 94.294 195.811 95.194C195.811 96.094 196.075 96.82 196.603 97.372C197.143 97.924 197.827 98.2 198.655 98.2ZM215.224 90.388V100H212.992V92.296H208.258V100H206.008V90.388H215.224ZM227.332 90.388L222.832 100.774C222.412 101.818 221.902 102.55 221.302 102.97C220.702 103.402 219.976 103.618 219.124 103.618C218.644 103.618 218.17 103.54 217.702 103.384C217.234 103.228 216.85 103.012 216.55 102.736L217.45 101.08C217.666 101.284 217.918 101.446 218.206 101.566C218.506 101.686 218.806 101.746 219.106 101.746C219.502 101.746 219.826 101.644 220.078 101.44C220.342 101.236 220.582 100.894 220.798 100.414L220.96 100.036L216.766 90.388H219.106L222.13 97.498L225.172 90.388H227.332ZM234.009 90.856C234.921 90.856 235.725 91.054 236.421 91.45C237.117 91.834 237.657 92.374 238.041 93.07C238.437 93.766 238.635 94.564 238.635 95.464C238.635 96.388 238.419 97.21 237.987 97.93C237.555 98.638 236.949 99.19 236.169 99.586C235.389 99.982 234.501 100.18 233.505 100.18C231.837 100.18 230.547 99.628 229.635 98.524C228.723 97.42 228.267 95.83 228.267 93.754C228.267 91.822 228.681 90.292 229.509 89.164C230.337 88.036 231.603 87.292 233.307 86.932L237.771 85.978L238.095 87.994L234.045 88.822C232.881 89.062 232.011 89.47 231.435 90.046C230.859 90.622 230.523 91.432 230.427 92.476C230.859 91.96 231.381 91.564 231.993 91.288C232.605 91 233.277 90.856 234.009 90.856ZM233.559 98.362C234.387 98.362 235.053 98.098 235.557 97.57C236.073 97.03 236.331 96.346 236.331 95.518C236.331 94.69 236.073 94.024 235.557 93.52C235.053 93.016 234.387 92.764 233.559 92.764C232.719 92.764 232.041 93.016 231.525 93.52C231.009 94.024 230.751 94.69 230.751 95.518C230.751 96.358 231.009 97.042 231.525 97.57C232.053 98.098 232.731 98.362 233.559 98.362ZM249.419 90.388V100H247.169V92.296H243.569L243.479 94.204C243.419 95.476 243.299 96.544 243.119 97.408C242.951 98.26 242.657 98.938 242.237 99.442C241.829 99.934 241.265 100.18 240.545 100.18C240.209 100.18 239.795 100.114 239.303 99.982L239.411 98.092C239.579 98.128 239.723 98.146 239.843 98.146C240.299 98.146 240.641 97.966 240.869 97.606C241.097 97.234 241.241 96.796 241.301 96.292C241.373 95.776 241.433 95.044 241.481 94.096L241.643 90.388H249.419ZM252.45 90.388H254.7V96.724L260.01 90.388H262.062V100H259.812V93.664L254.52 100H252.45V90.388ZM269.084 96.148H267.338V100H265.088V90.388H267.338V94.276H269.138L271.982 90.388H274.394L270.902 95.014L274.628 100H271.982L269.084 96.148ZM280.183 100.126C279.211 100.126 278.335 99.916 277.555 99.496C276.775 99.076 276.163 98.494 275.719 97.75C275.287 96.994 275.071 96.142 275.071 95.194C275.071 94.246 275.287 93.4 275.719 92.656C276.163 91.912 276.775 91.33 277.555 90.91C278.335 90.49 279.211 90.28 280.183 90.28C281.167 90.28 282.049 90.49 282.829 90.91C283.609 91.33 284.215 91.912 284.647 92.656C285.091 93.4 285.313 94.246 285.313 95.194C285.313 96.142 285.091 96.994 284.647 97.75C284.215 98.494 283.609 99.076 282.829 99.496C282.049 99.916 281.167 100.126 280.183 100.126ZM280.183 98.2C281.011 98.2 281.695 97.924 282.235 97.372C282.775 96.82 283.045 96.094 283.045 95.194C283.045 94.294 282.775 93.568 282.235 93.016C281.695 92.464 281.011 92.188 280.183 92.188C279.355 92.188 278.671 92.464 278.131 93.016C277.603 93.568 277.339 94.294 277.339 95.194C277.339 96.094 277.603 96.82 278.131 97.372C278.671 97.924 279.355 98.2 280.183 98.2ZM294.501 94.996C295.689 95.356 296.283 96.124 296.283 97.3C296.283 98.164 295.959 98.83 295.311 99.298C294.663 99.766 293.703 100 292.431 100H287.535V90.388H292.233C293.409 90.388 294.327 90.604 294.987 91.036C295.647 91.468 295.977 92.08 295.977 92.872C295.977 93.364 295.845 93.79 295.581 94.15C295.329 94.51 294.969 94.792 294.501 94.996ZM289.677 94.402H292.035C293.199 94.402 293.781 94 293.781 93.196C293.781 92.416 293.199 92.026 292.035 92.026H289.677V94.402ZM292.251 98.362C293.487 98.362 294.105 97.96 294.105 97.156C294.105 96.736 293.961 96.424 293.673 96.22C293.385 96.004 292.935 95.896 292.323 95.896H289.677V98.362H292.251ZM302.262 90.28C303.678 90.28 304.758 90.622 305.502 91.306C306.258 91.978 306.636 92.998 306.636 94.366V100H304.512V98.83C304.236 99.25 303.84 99.574 303.324 99.802C302.82 100.018 302.208 100.126 301.488 100.126C300.768 100.126 300.138 100.006 299.598 99.766C299.058 99.514 298.638 99.172 298.338 98.74C298.05 98.296 297.906 97.798 297.906 97.246C297.906 96.382 298.224 95.692 298.86 95.176C299.508 94.648 300.522 94.384 301.902 94.384H304.386V94.24C304.386 93.568 304.182 93.052 303.774 92.692C303.378 92.332 302.784 92.152 301.992 92.152C301.452 92.152 300.918 92.236 300.39 92.404C299.874 92.572 299.436 92.806 299.076 93.106L298.194 91.468C298.698 91.084 299.304 90.79 300.012 90.586C300.72 90.382 301.47 90.28 302.262 90.28ZM301.956 98.488C302.52 98.488 303.018 98.362 303.45 98.11C303.894 97.846 304.206 97.474 304.386 96.994V95.878H302.064C300.768 95.878 300.12 96.304 300.12 97.156C300.12 97.564 300.282 97.888 300.606 98.128C300.93 98.368 301.38 98.488 301.956 98.488ZM309.42 90.388H311.67V94.294H316.512V90.388H318.762V100H316.512V96.202H311.67V100H309.42V90.388ZM326.062 100.126C325.09 100.126 324.214 99.916 323.434 99.496C322.654 99.076 322.042 98.494 321.598 97.75C321.166 96.994 320.95 96.142 320.95 95.194C320.95 94.246 321.166 93.4 321.598 92.656C322.042 91.912 322.654 91.33 323.434 90.91C324.214 90.49 325.09 90.28 326.062 90.28C327.046 90.28 327.928 90.49 328.708 90.91C329.488 91.33 330.094 91.912 330.526 92.656C330.97 93.4 331.192 94.246 331.192 95.194C331.192 96.142 330.97 96.994 330.526 97.75C330.094 98.494 329.488 99.076 328.708 99.496C327.928 99.916 327.046 100.126 326.062 100.126ZM326.062 98.2C326.89 98.2 327.574 97.924 328.114 97.372C328.654 96.82 328.924 96.094 328.924 95.194C328.924 94.294 328.654 93.568 328.114 93.016C327.574 92.464 326.89 92.188 326.062 92.188C325.234 92.188 324.55 92.464 324.01 93.016C323.482 93.568 323.218 94.294 323.218 95.194C323.218 96.094 323.482 96.82 324.01 97.372C324.55 97.924 325.234 98.2 326.062 98.2Z" fill="#939393"/>
</svg>
