<svg width="267" height="105" viewBox="0 0 267 105" fill="none" xmlns="http://www.w3.org/2000/svg">
<path d="M30 23C13.4176 23 0 36.419 0 53C0 69.5824 13.419 83 30 83C46.5824 83 60 69.581 60 53C60 36.4176 46.581 23 30 23ZM30 79C15.6636 79 3.99996 67.3365 3.99996 53C3.99996 38.6635 15.6636 27 30 27C44.3364 27 56 38.6636 56 53C56 67.3364 44.3364 79 30 79Z" fill="#61DB74"/>
<path d="M45.8807 41.9761C45.0996 41.1951 43.8332 41.1951 43.0523 41.9761L25.2471 59.7812L16.9479 51.4821C16.1669 50.7011 14.9004 50.7011 14.1195 51.4821C13.3384 52.2632 13.3384 53.5295 14.1195 54.3106L23.8328 64.0239C24.6137 64.8048 25.8805 64.8046 26.6612 64.0239L45.8807 44.8044C46.6618 44.0234 46.6618 42.7572 45.8807 41.9761Z" fill="#61DB74"/>
<path d="M102.024 20.2V79H91.104V29.356H78.672V20.2H102.024ZM156.276 69.76V79H112.932V71.692L136.284 49.516C138.916 46.996 140.68 44.812 141.576 42.964C142.528 41.06 143.004 39.184 143.004 37.336C143.004 34.592 142.08 32.492 140.232 31.036C138.384 29.58 135.668 28.852 132.084 28.852C126.092 28.852 121.5 30.896 118.308 34.984L110.664 29.104C112.96 26.024 116.04 23.644 119.904 21.964C123.824 20.228 128.192 19.36 133.008 19.36C139.392 19.36 144.488 20.872 148.296 23.896C152.104 26.92 154.008 31.036 154.008 36.244C154.008 39.436 153.336 42.432 151.992 45.232C150.648 48.032 148.072 51.224 144.264 54.808L128.556 69.76H156.276ZM182.907 20.2V79H171.987V29.356H159.555V20.2H182.907ZM79.512 90.388H81.762V96.724L87.072 90.388H89.124V100H86.874V93.664L81.582 100H79.512V90.388ZM92.1507 90.388H94.4007V94.294H99.2427V90.388H101.493V100H99.2427V96.202H94.4007V100H92.1507V90.388ZM104.508 90.388H106.758V96.724L112.068 90.388H114.12V100H111.87V93.664L106.578 100H104.508V90.388ZM127.695 98.092V102.214H125.589V100H117.147V90.388H119.397V98.092H123.987V90.388H126.237V98.092H127.695ZM129.698 90.388H131.948V96.724L137.258 90.388H139.31V100H137.06V93.664L131.768 100H129.698V90.388ZM145.918 90.28C147.334 90.28 148.414 90.622 149.158 91.306C149.914 91.978 150.292 92.998 150.292 94.366V100H148.168V98.83C147.892 99.25 147.496 99.574 146.98 99.802C146.476 100.018 145.864 100.126 145.144 100.126C144.424 100.126 143.794 100.006 143.254 99.766C142.714 99.514 142.294 99.172 141.994 98.74C141.706 98.296 141.562 97.798 141.562 97.246C141.562 96.382 141.88 95.692 142.516 95.176C143.164 94.648 144.178 94.384 145.558 94.384H148.042V94.24C148.042 93.568 147.838 93.052 147.43 92.692C147.034 92.332 146.44 92.152 145.648 92.152C145.108 92.152 144.574 92.236 144.046 92.404C143.53 92.572 143.092 92.806 142.732 93.106L141.85 91.468C142.354 91.084 142.96 90.79 143.668 90.586C144.376 90.382 145.126 90.28 145.918 90.28ZM145.612 98.488C146.176 98.488 146.674 98.362 147.106 98.11C147.55 97.846 147.862 97.474 148.042 96.994V95.878H145.72C144.424 95.878 143.776 96.304 143.776 97.156C143.776 97.564 143.938 97.888 144.262 98.128C144.586 98.368 145.036 98.488 145.612 98.488ZM160.69 92.296H157.324V100H155.074V92.296H151.69V90.388H160.69V92.296ZM162.323 90.388H164.573V96.724L169.883 90.388H171.935V100H169.685V93.664L164.393 100H162.323V90.388ZM181.927 94.996C183.115 95.356 183.709 96.124 183.709 97.3C183.709 98.164 183.385 98.83 182.737 99.298C182.089 99.766 181.129 100 179.857 100H174.961V90.388H179.659C180.835 90.388 181.753 90.604 182.413 91.036C183.073 91.468 183.403 92.08 183.403 92.872C183.403 93.364 183.271 93.79 183.007 94.15C182.755 94.51 182.395 94.792 181.927 94.996ZM177.103 94.402H179.461C180.625 94.402 181.207 94 181.207 93.196C181.207 92.416 180.625 92.026 179.461 92.026H177.103V94.402ZM179.677 98.362C180.913 98.362 181.531 97.96 181.531 97.156C181.531 96.736 181.387 96.424 181.099 96.22C180.811 96.004 180.361 95.896 179.749 95.896H177.103V98.362H179.677ZM196.408 90.28C197.344 90.28 198.178 90.484 198.91 90.892C199.654 91.3 200.236 91.876 200.656 92.62C201.076 93.364 201.286 94.222 201.286 95.194C201.286 96.166 201.076 97.03 200.656 97.786C200.236 98.53 199.654 99.106 198.91 99.514C198.178 99.922 197.344 100.126 196.408 100.126C195.112 100.126 194.086 99.694 193.33 98.83V103.492H191.08V90.388H193.222V91.648C193.594 91.192 194.05 90.85 194.59 90.622C195.142 90.394 195.748 90.28 196.408 90.28ZM196.156 98.2C196.984 98.2 197.662 97.924 198.19 97.372C198.73 96.82 199 96.094 199 95.194C199 94.294 198.73 93.568 198.19 93.016C197.662 92.464 196.984 92.188 196.156 92.188C195.616 92.188 195.13 92.314 194.698 92.566C194.266 92.806 193.924 93.154 193.672 93.61C193.42 94.066 193.294 94.594 193.294 95.194C193.294 95.794 193.42 96.322 193.672 96.778C193.924 97.234 194.266 97.588 194.698 97.84C195.13 98.08 195.616 98.2 196.156 98.2ZM212.526 95.248C212.526 95.404 212.514 95.626 212.49 95.914H204.948C205.08 96.622 205.422 97.186 205.974 97.606C206.538 98.014 207.234 98.218 208.062 98.218C209.118 98.218 209.988 97.87 210.672 97.174L211.878 98.56C211.446 99.076 210.9 99.466 210.24 99.73C209.58 99.994 208.836 100.126 208.008 100.126C206.952 100.126 206.022 99.916 205.218 99.496C204.414 99.076 203.79 98.494 203.346 97.75C202.914 96.994 202.698 96.142 202.698 95.194C202.698 94.258 202.908 93.418 203.328 92.674C203.76 91.918 204.354 91.33 205.11 90.91C205.866 90.49 206.718 90.28 207.666 90.28C208.602 90.28 209.436 90.49 210.168 90.91C210.912 91.318 211.488 91.9 211.896 92.656C212.316 93.4 212.526 94.264 212.526 95.248ZM207.666 92.08C206.946 92.08 206.334 92.296 205.83 92.728C205.338 93.148 205.038 93.712 204.93 94.42H210.384C210.288 93.724 209.994 93.16 209.502 92.728C209.01 92.296 208.398 92.08 207.666 92.08ZM229.153 90.388V100H214.987V90.388H217.237V98.092H220.963V90.388H223.213V98.092H226.903V90.388H229.153ZM241.178 95.248C241.178 95.404 241.166 95.626 241.142 95.914H233.6C233.732 96.622 234.074 97.186 234.626 97.606C235.19 98.014 235.886 98.218 236.714 98.218C237.77 98.218 238.64 97.87 239.324 97.174L240.53 98.56C240.098 99.076 239.552 99.466 238.892 99.73C238.232 99.994 237.488 100.126 236.66 100.126C235.604 100.126 234.674 99.916 233.87 99.496C233.066 99.076 232.442 98.494 231.998 97.75C231.566 96.994 231.35 96.142 231.35 95.194C231.35 94.258 231.56 93.418 231.98 92.674C232.412 91.918 233.006 91.33 233.762 90.91C234.518 90.49 235.37 90.28 236.318 90.28C237.254 90.28 238.088 90.49 238.82 90.91C239.564 91.318 240.14 91.9 240.548 92.656C240.968 93.4 241.178 94.264 241.178 95.248ZM236.318 92.08C235.598 92.08 234.986 92.296 234.482 92.728C233.99 93.148 233.69 93.712 233.582 94.42H239.036C238.94 93.724 238.646 93.16 238.154 92.728C237.662 92.296 237.05 92.08 236.318 92.08ZM243.639 90.388H245.889V94.294H250.731V90.388H252.981V100H250.731V96.202H245.889V100H243.639V90.388ZM260.28 100.126C259.308 100.126 258.432 99.916 257.652 99.496C256.872 99.076 256.26 98.494 255.816 97.75C255.384 96.994 255.168 96.142 255.168 95.194C255.168 94.246 255.384 93.4 255.816 92.656C256.26 91.912 256.872 91.33 257.652 90.91C258.432 90.49 259.308 90.28 260.28 90.28C261.264 90.28 262.146 90.49 262.926 90.91C263.706 91.33 264.312 91.912 264.744 92.656C265.188 93.4 265.41 94.246 265.41 95.194C265.41 96.142 265.188 96.994 264.744 97.75C264.312 98.494 263.706 99.076 262.926 99.496C262.146 99.916 261.264 100.126 260.28 100.126ZM260.28 98.2C261.108 98.2 261.792 97.924 262.332 97.372C262.872 96.82 263.142 96.094 263.142 95.194C263.142 94.294 262.872 93.568 262.332 93.016C261.792 92.464 261.108 92.188 260.28 92.188C259.452 92.188 258.768 92.464 258.228 93.016C257.7 93.568 257.436 94.294 257.436 95.194C257.436 96.094 257.7 96.82 258.228 97.372C258.768 97.924 259.452 98.2 260.28 98.2Z" fill="#61DB74"/>
</svg>
