<svg width="284" height="105" viewBox="0 0 284 105" fill="none" xmlns="http://www.w3.org/2000/svg">
<g clip-path="url(#clip0)">
<path d="M32.6568 67.2617L32.6562 67.2772L32.6569 67.2927C32.7207 68.6754 31.4348 69.9338 29.9993 69.9338C28.5163 69.9338 27.268 68.6854 27.268 67.2025C27.268 65.7196 28.5163 64.4712 29.9993 64.4712C31.4917 64.4712 32.7223 65.7011 32.6568 67.2617Z" fill="#FF6464" stroke="#FF6464" stroke-width="0.704376"/>
<mask id="path-3-inside-1" fill="white">
<path d="M58.54 75.047C60.4764 71.7045 60.4887 67.7206 58.5646 64.3904L39.2497 30.9408C37.3379 27.5737 33.8844 25.5756 30.0116 25.5756C26.1387 25.5756 22.6852 27.586 20.7735 30.9285L1.43388 64.4151C-0.490215 67.7823 -0.477881 71.7908 1.47088 75.1333C3.39497 78.4388 6.83614 80.4245 10.6843 80.4245H49.2649C53.1254 80.4245 56.5912 78.4141 58.54 75.047ZM54.3464 72.6295C53.2734 74.4796 51.374 75.5773 49.2525 75.5773H10.672C8.57522 75.5773 6.68813 74.5043 5.63975 72.6912C4.57903 70.8534 4.5667 68.658 5.62741 66.8079L24.967 33.3336C26.0154 31.4958 27.8902 30.4105 30.0116 30.4105C32.1207 30.4105 34.0078 31.5082 35.0562 33.3459L54.3834 66.8202C55.4195 68.621 55.4072 70.7917 54.3464 72.6295Z"/>
</mask>
<path d="M58.54 75.047C60.4764 71.7045 60.4887 67.7206 58.5646 64.3904L39.2497 30.9408C37.3379 27.5737 33.8844 25.5756 30.0116 25.5756C26.1387 25.5756 22.6852 27.586 20.7735 30.9285L1.43388 64.4151C-0.490215 67.7823 -0.477881 71.7908 1.47088 75.1333C3.39497 78.4388 6.83614 80.4245 10.6843 80.4245H49.2649C53.1254 80.4245 56.5912 78.4141 58.54 75.047ZM54.3464 72.6295C53.2734 74.4796 51.374 75.5773 49.2525 75.5773H10.672C8.57522 75.5773 6.68813 74.5043 5.63975 72.6912C4.57903 70.8534 4.5667 68.658 5.62741 66.8079L24.967 33.3336C26.0154 31.4958 27.8902 30.4105 30.0116 30.4105C32.1207 30.4105 34.0078 31.5082 35.0562 33.3459L54.3834 66.8202C55.4195 68.621 55.4072 70.7917 54.3464 72.6295Z" fill="#FF6464"/>
<path d="M58.54 75.047L21.971 53.8612L21.9664 53.8692L21.9618 53.8772L58.54 75.047ZM58.5646 64.3904L21.9655 85.524L21.971 85.5335L58.5646 64.3904ZM39.2497 30.9408L2.49767 51.8074L2.57363 51.9412L2.65057 52.0744L39.2497 30.9408ZM20.7735 30.9285L57.3711 52.0648L57.4154 51.9881L57.4593 51.9112L20.7735 30.9285ZM1.43388 64.4151L-35.1637 43.2788L-35.2122 43.3628L-35.2603 43.447L1.43388 64.4151ZM1.47088 75.1333L37.9962 53.8723L37.9887 53.8595L37.9813 53.8468L1.47088 75.1333ZM54.3464 72.6295L90.9049 93.8334L90.9273 93.7948L90.9496 93.7561L54.3464 72.6295ZM5.63975 72.6912L-30.9634 93.8178L-30.9551 93.8322L-30.9467 93.8466L5.63975 72.6912ZM5.62741 66.8079L-30.9668 45.6658L-31.0018 45.7264L-31.0367 45.7872L5.62741 66.8079ZM24.967 33.3336L61.5612 54.4757L61.6191 54.3756L61.6764 54.2752L24.967 33.3336ZM35.0562 33.3459L-1.65317 54.2875L-1.59877 54.3829L-1.54387 54.4779L35.0562 33.3459ZM54.3834 66.8202L91.0157 45.7441L90.9996 45.7162L90.9835 45.6882L54.3834 66.8202ZM95.109 96.2327C104.564 79.9114 104.713 59.7843 95.1583 43.2474L21.971 85.5335C16.2645 75.6569 16.3883 63.4975 21.971 53.8612L95.109 96.2327ZM95.1638 43.2569L75.8488 9.80725L2.65057 52.0744L21.9655 85.524L95.1638 43.2569ZM76.0017 10.0743C66.5332 -6.60252 48.9949 -16.687 30.0116 -16.687V67.8381C18.7739 67.8381 8.14266 61.7498 2.49767 51.8074L76.0017 10.0743ZM30.0116 -16.687C10.9728 -16.687 -6.47667 -6.55146 -15.9124 9.9458L57.4593 51.9112C51.8471 61.7234 41.3047 67.8381 30.0116 67.8381V-16.687ZM-15.8241 9.79221L-35.1637 43.2788L38.0315 85.5514L57.3711 52.0648L-15.8241 9.79221ZM-35.2603 43.447C-44.6418 59.8645 -44.6244 79.98 -35.0395 96.4198L37.9813 53.8468C43.6686 63.6016 43.6613 75.7 38.1281 85.3832L-35.2603 43.447ZM-35.0544 96.3943C-25.5629 112.7 -8.21224 122.687 10.6843 122.687V38.162C21.8845 38.162 32.3529 44.1774 37.9962 53.8723L-35.0544 96.3943ZM10.6843 122.687H49.2649V38.162H10.6843V122.687ZM49.2649 122.687C68.3649 122.687 85.6928 112.502 95.1182 96.2168L21.9618 53.8772C27.4896 44.3259 37.8859 38.162 49.2649 38.162V122.687ZM17.788 51.4256C24.2151 40.3444 36.1853 33.3147 49.2525 33.3147V117.84C66.5626 117.84 82.3317 108.615 90.9049 93.8334L17.788 51.4256ZM49.2525 33.3147H10.672V117.84H49.2525V33.3147ZM10.672 33.3147C23.4328 33.3147 35.6064 40.0872 42.2262 51.5357L-30.9467 93.8466C-22.2301 108.921 -6.28236 117.84 10.672 117.84V33.3147ZM42.2429 51.5645C48.6539 62.672 48.7691 76.5305 42.2915 87.8286L-31.0367 45.7872C-39.6357 60.7854 -39.4959 79.0348 -30.9634 93.8178L42.2429 51.5645ZM42.2216 87.95L61.5612 54.4757L-11.6272 12.1915L-30.9668 45.6658L42.2216 87.95ZM61.6764 54.2752C55.1685 65.6831 42.9949 72.673 30.0116 72.673V-11.8521C12.7854 -11.8521 -3.1377 -2.69137 -11.7423 12.392L61.6764 54.2752ZM30.0116 72.673C16.8927 72.673 4.79367 65.5884 -1.65317 54.2875L71.7655 12.4044C63.2219 -2.57207 47.3487 -11.8521 30.0116 -11.8521V72.673ZM-1.54387 54.4779L17.7834 87.9522L90.9835 45.6882L71.6562 12.2139L-1.54387 54.4779ZM17.7512 87.8963C11.0925 76.3229 11.4479 62.41 17.7433 51.5029L90.9496 93.7561C99.3664 79.1735 99.7465 60.9191 91.0157 45.7441L17.7512 87.8963Z" fill="#FF6464" mask="url(#path-3-inside-1)"/>
<path d="M29.2345 42.473C27.7667 42.8923 26.854 44.2244 26.854 45.8401C26.928 46.8145 26.9897 47.8012 27.0637 48.7756C27.2734 52.4881 27.483 56.1266 27.6927 59.8391C27.7667 61.0972 28.7411 62.0099 29.9992 62.0099C31.2572 62.0099 32.2439 61.0355 32.3056 59.7651C32.3056 59.0004 32.3056 58.2974 32.3796 57.5204C32.5153 55.1399 32.6633 52.7595 32.799 50.379C32.873 48.8373 33.0086 47.2955 33.0826 45.7538C33.0826 45.1988 33.0086 44.7054 32.799 44.2121C32.1699 42.8307 30.7022 42.1276 29.2345 42.473Z" fill="#FF6464"/>
</g>
<rect y="23" width="60" height="60" stroke="#A40000"/>
<path d="M132.112 65.644H121.696V79H111.112V65.644H78.856V58.084L107.836 20.2H119.512L92.212 56.404H111.448V44.56H121.696V56.404H132.112V65.644ZM160.919 44.476C166.351 45.148 170.495 46.996 173.351 50.02C176.207 53.044 177.635 56.824 177.635 61.36C177.635 64.776 176.767 67.884 175.031 70.684C173.295 73.484 170.663 75.724 167.135 77.404C163.663 79.028 159.407 79.84 154.367 79.84C150.167 79.84 146.107 79.252 142.187 78.076C138.323 76.844 135.019 75.164 132.275 73.036L136.979 64.552C139.107 66.344 141.683 67.772 144.707 68.836C147.787 69.844 150.951 70.348 154.199 70.348C158.063 70.348 161.087 69.564 163.271 67.996C165.511 66.372 166.631 64.188 166.631 61.444C166.631 58.7 165.567 56.572 163.439 55.06C161.367 53.492 158.175 52.708 153.863 52.708H148.487V45.232L161.843 29.356H135.131V20.2H175.199V27.508L160.919 44.476ZM205.106 20.2V79H194.186V29.356H181.754V20.2H205.106ZM77.512 90.388H79.762V96.724L85.072 90.388H87.124V100H84.874V93.664L79.582 100H77.512V90.388ZM90.1507 90.388H92.4007V94.294H97.2427V90.388H99.4927V100H97.2427V96.202H92.4007V100H90.1507V90.388ZM102.508 90.388H104.758V96.724L110.068 90.388H112.12V100H109.87V93.664L104.578 100H102.508V90.388ZM125.695 98.092V102.214H123.589V100H115.147V90.388H117.397V98.092H121.987V90.388H124.237V98.092H125.695ZM127.698 90.388H129.948V96.724L135.258 90.388H137.31V100H135.06V93.664L129.768 100H127.698V90.388ZM143.918 90.28C145.334 90.28 146.414 90.622 147.158 91.306C147.914 91.978 148.292 92.998 148.292 94.366V100H146.168V98.83C145.892 99.25 145.496 99.574 144.98 99.802C144.476 100.018 143.864 100.126 143.144 100.126C142.424 100.126 141.794 100.006 141.254 99.766C140.714 99.514 140.294 99.172 139.994 98.74C139.706 98.296 139.562 97.798 139.562 97.246C139.562 96.382 139.88 95.692 140.516 95.176C141.164 94.648 142.178 94.384 143.558 94.384H146.042V94.24C146.042 93.568 145.838 93.052 145.43 92.692C145.034 92.332 144.44 92.152 143.648 92.152C143.108 92.152 142.574 92.236 142.046 92.404C141.53 92.572 141.092 92.806 140.732 93.106L139.85 91.468C140.354 91.084 140.96 90.79 141.668 90.586C142.376 90.382 143.126 90.28 143.918 90.28ZM143.612 98.488C144.176 98.488 144.674 98.362 145.106 98.11C145.55 97.846 145.862 97.474 146.042 96.994V95.878H143.72C142.424 95.878 141.776 96.304 141.776 97.156C141.776 97.564 141.938 97.888 142.262 98.128C142.586 98.368 143.036 98.488 143.612 98.488ZM158.69 92.296H155.324V100H153.074V92.296H149.69V90.388H158.69V92.296ZM160.323 90.388H162.573V96.724L167.883 90.388H169.935V100H167.685V93.664L162.393 100H160.323V90.388ZM179.927 94.996C181.115 95.356 181.709 96.124 181.709 97.3C181.709 98.164 181.385 98.83 180.737 99.298C180.089 99.766 179.129 100 177.857 100H172.961V90.388H177.659C178.835 90.388 179.753 90.604 180.413 91.036C181.073 91.468 181.403 92.08 181.403 92.872C181.403 93.364 181.271 93.79 181.007 94.15C180.755 94.51 180.395 94.792 179.927 94.996ZM175.103 94.402H177.461C178.625 94.402 179.207 94 179.207 93.196C179.207 92.416 178.625 92.026 177.461 92.026H175.103V94.402ZM177.677 98.362C178.913 98.362 179.531 97.96 179.531 97.156C179.531 96.736 179.387 96.424 179.099 96.22C178.811 96.004 178.361 95.896 177.749 95.896H175.103V98.362H177.677ZM196.046 94.996C197.234 95.356 197.828 96.124 197.828 97.3C197.828 98.164 197.504 98.83 196.856 99.298C196.208 99.766 195.248 100 193.976 100H189.08V90.388H193.778C194.954 90.388 195.872 90.604 196.532 91.036C197.192 91.468 197.522 92.08 197.522 92.872C197.522 93.364 197.39 93.79 197.126 94.15C196.874 94.51 196.514 94.792 196.046 94.996ZM191.222 94.402H193.58C194.744 94.402 195.326 94 195.326 93.196C195.326 92.416 194.744 92.026 193.58 92.026H191.222V94.402ZM193.796 98.362C195.032 98.362 195.65 97.96 195.65 97.156C195.65 96.736 195.506 96.424 195.218 96.22C194.93 96.004 194.48 95.896 193.868 95.896H191.222V98.362H193.796ZM204.905 93.556C206.129 93.556 207.065 93.832 207.713 94.384C208.361 94.936 208.685 95.716 208.685 96.724C208.685 97.78 208.325 98.596 207.605 99.172C206.897 99.748 205.889 100.03 204.581 100.018L200.225 100V90.388H202.475V93.538L204.905 93.556ZM209.927 90.388H212.177V100H209.927V90.388ZM204.383 98.362C205.043 98.374 205.547 98.236 205.895 97.948C206.243 97.66 206.417 97.24 206.417 96.688C206.417 96.148 206.249 95.752 205.913 95.5C205.577 95.248 205.067 95.116 204.383 95.104L202.475 95.086V98.344L204.383 98.362ZM223.319 90.388V100H221.303V97.102H218.765L216.803 100H214.391L216.659 96.796C215.963 96.556 215.429 96.19 215.057 95.698C214.697 95.194 214.517 94.576 214.517 93.844C214.517 92.74 214.907 91.888 215.687 91.288C216.467 90.688 217.541 90.388 218.909 90.388H223.319ZM218.981 92.278C217.529 92.278 216.803 92.824 216.803 93.916C216.803 94.996 217.505 95.536 218.909 95.536H221.303V92.278H218.981ZM233.312 94.996C234.5 95.356 235.094 96.124 235.094 97.3C235.094 98.164 234.77 98.83 234.122 99.298C233.474 99.766 232.514 100 231.242 100H226.346V90.388H231.044C232.22 90.388 233.138 90.604 233.798 91.036C234.458 91.468 234.788 92.08 234.788 92.872C234.788 93.364 234.656 93.79 234.392 94.15C234.14 94.51 233.78 94.792 233.312 94.996ZM228.488 94.402H230.846C232.01 94.402 232.592 94 232.592 93.196C232.592 92.416 232.01 92.026 230.846 92.026H228.488V94.402ZM231.062 98.362C232.298 98.362 232.916 97.96 232.916 97.156C232.916 96.736 232.772 96.424 232.484 96.22C232.196 96.004 231.746 95.896 231.134 95.896H228.488V98.362H231.062ZM246.203 90.388V100H243.953V92.296H240.353L240.263 94.204C240.203 95.476 240.083 96.544 239.903 97.408C239.735 98.26 239.441 98.938 239.021 99.442C238.613 99.934 238.049 100.18 237.329 100.18C236.993 100.18 236.579 100.114 236.087 99.982L236.195 98.092C236.363 98.128 236.507 98.146 236.627 98.146C237.083 98.146 237.425 97.966 237.653 97.606C237.881 97.234 238.025 96.796 238.085 96.292C238.157 95.776 238.217 95.044 238.265 94.096L238.427 90.388H246.203ZM258.233 95.248C258.233 95.404 258.221 95.626 258.197 95.914H250.655C250.787 96.622 251.129 97.186 251.681 97.606C252.245 98.014 252.941 98.218 253.769 98.218C254.825 98.218 255.695 97.87 256.379 97.174L257.585 98.56C257.153 99.076 256.607 99.466 255.947 99.73C255.287 99.994 254.543 100.126 253.715 100.126C252.659 100.126 251.729 99.916 250.925 99.496C250.121 99.076 249.497 98.494 249.053 97.75C248.621 96.994 248.405 96.142 248.405 95.194C248.405 94.258 248.615 93.418 249.035 92.674C249.467 91.918 250.061 91.33 250.817 90.91C251.573 90.49 252.425 90.28 253.373 90.28C254.309 90.28 255.143 90.49 255.875 90.91C256.619 91.318 257.195 91.9 257.603 92.656C258.023 93.4 258.233 94.264 258.233 95.248ZM253.373 92.08C252.653 92.08 252.041 92.296 251.537 92.728C251.045 93.148 250.745 93.712 250.637 94.42H256.091C255.995 93.724 255.701 93.16 255.209 92.728C254.717 92.296 254.105 92.08 253.373 92.08ZM260.694 90.388H262.944V94.294H267.786V90.388H270.036V100H267.786V96.202H262.944V100H260.694V90.388ZM277.335 100.126C276.363 100.126 275.487 99.916 274.707 99.496C273.927 99.076 273.315 98.494 272.871 97.75C272.439 96.994 272.223 96.142 272.223 95.194C272.223 94.246 272.439 93.4 272.871 92.656C273.315 91.912 273.927 91.33 274.707 90.91C275.487 90.49 276.363 90.28 277.335 90.28C278.319 90.28 279.201 90.49 279.981 90.91C280.761 91.33 281.367 91.912 281.799 92.656C282.243 93.4 282.465 94.246 282.465 95.194C282.465 96.142 282.243 96.994 281.799 97.75C281.367 98.494 280.761 99.076 279.981 99.496C279.201 99.916 278.319 100.126 277.335 100.126ZM277.335 98.2C278.163 98.2 278.847 97.924 279.387 97.372C279.927 96.82 280.197 96.094 280.197 95.194C280.197 94.294 279.927 93.568 279.387 93.016C278.847 92.464 278.163 92.188 277.335 92.188C276.507 92.188 275.823 92.464 275.283 93.016C274.755 93.568 274.491 94.294 274.491 95.194C274.491 96.094 274.755 96.82 275.283 97.372C275.823 97.924 276.507 98.2 277.335 98.2Z" fill="#FF6464"/>
<defs>
<clipPath id="clip0">
</clipPath>
</defs>
</svg>
