<svg width="273" height="105" viewBox="0 0 273 105" fill="none" xmlns="http://www.w3.org/2000/svg">
<path d="M40.6893 56.2981L32.3237 50.0239V37.2432C32.3237 35.9581 31.2849 34.9194 29.9999 34.9194C28.7148 34.9194 27.676 35.9581 27.676 37.2432V51.1859C27.676 51.9179 28.02 52.6081 28.6056 53.045L37.9006 60.0164C38.3189 60.3301 38.807 60.4811 39.2926 60.4811C40.0013 60.4811 40.6985 60.1627 41.154 59.5493C41.9257 58.5243 41.7165 57.0673 40.6893 56.2981Z" fill="#FFD600"/>
<path d="M30 21C13.457 21 0 34.457 0 51C0 67.543 13.457 81 30 81C46.543 81 60 67.543 60 51C60 34.457 46.543 21 30 21ZM30 76.3525C16.0225 76.3525 4.64754 64.9775 4.64754 51C4.64754 37.0225 16.0225 25.6475 30 25.6475C43.9799 25.6475 55.3525 37.0225 55.3525 51C55.3525 64.9775 43.9775 76.3525 30 76.3525Z" fill="#FFD600"/>
<path d="M106.728 44.476C112.16 45.148 116.304 46.996 119.16 50.02C122.016 53.044 123.444 56.824 123.444 61.36C123.444 64.776 122.576 67.884 120.84 70.684C119.104 73.484 116.472 75.724 112.944 77.404C109.472 79.028 105.216 79.84 100.176 79.84C95.976 79.84 91.916 79.252 87.996 78.076C84.132 76.844 80.828 75.164 78.084 73.036L82.788 64.552C84.916 66.344 87.492 67.772 90.516 68.836C93.596 69.844 96.76 70.348 100.008 70.348C103.872 70.348 106.896 69.564 109.08 67.996C111.32 66.372 112.44 64.188 112.44 61.444C112.44 58.7 111.376 56.572 109.248 55.06C107.176 53.492 103.984 52.708 99.672 52.708H94.296V45.232L107.652 29.356H80.94V20.2H121.008V27.508L106.728 44.476ZM172.764 69.76V79H129.42V71.692L152.772 49.516C155.404 46.996 157.168 44.812 158.064 42.964C159.016 41.06 159.492 39.184 159.492 37.336C159.492 34.592 158.568 32.492 156.72 31.036C154.872 29.58 152.156 28.852 148.572 28.852C142.58 28.852 137.988 30.896 134.796 34.984L127.152 29.104C129.448 26.024 132.528 23.644 136.392 21.964C140.312 20.228 144.68 19.36 149.496 19.36C155.88 19.36 160.976 20.872 164.784 23.896C168.592 26.92 170.496 31.036 170.496 36.244C170.496 39.436 169.824 42.432 168.48 45.232C167.136 48.032 164.56 51.224 160.752 54.808L145.044 69.76H172.764ZM203.349 79.84C198.645 79.84 194.445 78.664 190.749 76.312C187.053 73.904 184.141 70.432 182.013 65.896C179.885 61.304 178.821 55.872 178.821 49.6C178.821 43.328 179.885 37.924 182.013 33.388C184.141 28.796 187.053 25.324 190.749 22.972C194.445 20.564 198.645 19.36 203.349 19.36C208.053 19.36 212.253 20.564 215.949 22.972C219.701 25.324 222.641 28.796 224.769 33.388C226.897 37.924 227.961 43.328 227.961 49.6C227.961 55.872 226.897 61.304 224.769 65.896C222.641 70.432 219.701 73.904 215.949 76.312C212.253 78.664 208.053 79.84 203.349 79.84ZM203.349 70.348C207.549 70.348 210.853 68.612 213.261 65.14C215.725 61.668 216.957 56.488 216.957 49.6C216.957 42.712 215.725 37.532 213.261 34.06C210.853 30.588 207.549 28.852 203.349 28.852C199.205 28.852 195.901 30.588 193.437 34.06C191.029 37.532 189.825 42.712 189.825 49.6C189.825 56.488 191.029 61.668 193.437 65.14C195.901 68.612 199.205 70.348 203.349 70.348ZM79.512 90.388H81.762V96.724L87.072 90.388H89.124V100H86.874V93.664L81.582 100H79.512V90.388ZM92.1507 90.388H94.4007V94.294H99.2427V90.388H101.493V100H99.2427V96.202H94.4007V100H92.1507V90.388ZM104.508 90.388H106.758V96.724L112.068 90.388H114.12V100H111.87V93.664L106.578 100H104.508V90.388ZM127.695 98.092V102.214H125.589V100H117.147V90.388H119.397V98.092H123.987V90.388H126.237V98.092H127.695ZM129.698 90.388H131.948V96.724L137.258 90.388H139.31V100H137.06V93.664L131.768 100H129.698V90.388ZM145.918 90.28C147.334 90.28 148.414 90.622 149.158 91.306C149.914 91.978 150.292 92.998 150.292 94.366V100H148.168V98.83C147.892 99.25 147.496 99.574 146.98 99.802C146.476 100.018 145.864 100.126 145.144 100.126C144.424 100.126 143.794 100.006 143.254 99.766C142.714 99.514 142.294 99.172 141.994 98.74C141.706 98.296 141.562 97.798 141.562 97.246C141.562 96.382 141.88 95.692 142.516 95.176C143.164 94.648 144.178 94.384 145.558 94.384H148.042V94.24C148.042 93.568 147.838 93.052 147.43 92.692C147.034 92.332 146.44 92.152 145.648 92.152C145.108 92.152 144.574 92.236 144.046 92.404C143.53 92.572 143.092 92.806 142.732 93.106L141.85 91.468C142.354 91.084 142.96 90.79 143.668 90.586C144.376 90.382 145.126 90.28 145.918 90.28ZM145.612 98.488C146.176 98.488 146.674 98.362 147.106 98.11C147.55 97.846 147.862 97.474 148.042 96.994V95.878H145.72C144.424 95.878 143.776 96.304 143.776 97.156C143.776 97.564 143.938 97.888 144.262 98.128C144.586 98.368 145.036 98.488 145.612 98.488ZM160.69 92.296H157.324V100H155.074V92.296H151.69V90.388H160.69V92.296ZM162.323 90.388H164.573V96.724L169.883 90.388H171.935V100H169.685V93.664L164.393 100H162.323V90.388ZM181.927 94.996C183.115 95.356 183.709 96.124 183.709 97.3C183.709 98.164 183.385 98.83 182.737 99.298C182.089 99.766 181.129 100 179.857 100H174.961V90.388H179.659C180.835 90.388 181.753 90.604 182.413 91.036C183.073 91.468 183.403 92.08 183.403 92.872C183.403 93.364 183.271 93.79 183.007 94.15C182.755 94.51 182.395 94.792 181.927 94.996ZM177.103 94.402H179.461C180.625 94.402 181.207 94 181.207 93.196C181.207 92.416 180.625 92.026 179.461 92.026H177.103V94.402ZM179.677 98.362C180.913 98.362 181.531 97.96 181.531 97.156C181.531 96.736 181.387 96.424 181.099 96.22C180.811 96.004 180.361 95.896 179.749 95.896H177.103V98.362H179.677ZM198.046 94.996C199.234 95.356 199.828 96.124 199.828 97.3C199.828 98.164 199.504 98.83 198.856 99.298C198.208 99.766 197.248 100 195.976 100H191.08V90.388H195.778C196.954 90.388 197.872 90.604 198.532 91.036C199.192 91.468 199.522 92.08 199.522 92.872C199.522 93.364 199.39 93.79 199.126 94.15C198.874 94.51 198.514 94.792 198.046 94.996ZM193.222 94.402H195.58C196.744 94.402 197.326 94 197.326 93.196C197.326 92.416 196.744 92.026 195.58 92.026H193.222V94.402ZM195.796 98.362C197.032 98.362 197.65 97.96 197.65 97.156C197.65 96.736 197.506 96.424 197.218 96.22C196.93 96.004 196.48 95.896 195.868 95.896H193.222V98.362H195.796ZM212.528 90.28C213.464 90.28 214.298 90.484 215.03 90.892C215.774 91.3 216.356 91.876 216.776 92.62C217.196 93.364 217.406 94.222 217.406 95.194C217.406 96.166 217.196 97.03 216.776 97.786C216.356 98.53 215.774 99.106 215.03 99.514C214.298 99.922 213.464 100.126 212.528 100.126C211.232 100.126 210.206 99.694 209.45 98.83V103.492H207.2V90.388H209.342V91.648C209.714 91.192 210.17 90.85 210.71 90.622C211.262 90.394 211.868 90.28 212.528 90.28ZM212.276 98.2C213.104 98.2 213.782 97.924 214.31 97.372C214.85 96.82 215.12 96.094 215.12 95.194C215.12 94.294 214.85 93.568 214.31 93.016C213.782 92.464 213.104 92.188 212.276 92.188C211.736 92.188 211.25 92.314 210.818 92.566C210.386 92.806 210.044 93.154 209.792 93.61C209.54 94.066 209.414 94.594 209.414 95.194C209.414 95.794 209.54 96.322 209.792 96.778C210.044 97.234 210.386 97.588 210.818 97.84C211.25 98.08 211.736 98.2 212.276 98.2ZM223.104 90.28C224.52 90.28 225.6 90.622 226.344 91.306C227.1 91.978 227.478 92.998 227.478 94.366V100H225.354V98.83C225.078 99.25 224.682 99.574 224.166 99.802C223.662 100.018 223.05 100.126 222.33 100.126C221.61 100.126 220.98 100.006 220.44 99.766C219.9 99.514 219.48 99.172 219.18 98.74C218.892 98.296 218.748 97.798 218.748 97.246C218.748 96.382 219.066 95.692 219.702 95.176C220.35 94.648 221.364 94.384 222.744 94.384H225.228V94.24C225.228 93.568 225.024 93.052 224.616 92.692C224.22 92.332 223.626 92.152 222.834 92.152C222.294 92.152 221.76 92.236 221.232 92.404C220.716 92.572 220.278 92.806 219.918 93.106L219.036 91.468C219.54 91.084 220.146 90.79 220.854 90.586C221.562 90.382 222.312 90.28 223.104 90.28ZM222.798 98.488C223.362 98.488 223.86 98.362 224.292 98.11C224.736 97.846 225.048 97.474 225.228 96.994V95.878H222.906C221.61 95.878 220.962 96.304 220.962 97.156C220.962 97.564 221.124 97.888 221.448 98.128C221.772 98.368 222.222 98.488 222.798 98.488ZM235.464 90.856C236.376 90.856 237.18 91.054 237.876 91.45C238.572 91.834 239.112 92.374 239.496 93.07C239.892 93.766 240.09 94.564 240.09 95.464C240.09 96.388 239.874 97.21 239.442 97.93C239.01 98.638 238.404 99.19 237.624 99.586C236.844 99.982 235.956 100.18 234.96 100.18C233.292 100.18 232.002 99.628 231.09 98.524C230.178 97.42 229.722 95.83 229.722 93.754C229.722 91.822 230.136 90.292 230.964 89.164C231.792 88.036 233.058 87.292 234.762 86.932L239.226 85.978L239.55 87.994L235.5 88.822C234.336 89.062 233.466 89.47 232.89 90.046C232.314 90.622 231.978 91.432 231.882 92.476C232.314 91.96 232.836 91.564 233.448 91.288C234.06 91 234.732 90.856 235.464 90.856ZM235.014 98.362C235.842 98.362 236.508 98.098 237.012 97.57C237.528 97.03 237.786 96.346 237.786 95.518C237.786 94.69 237.528 94.024 237.012 93.52C236.508 93.016 235.842 92.764 235.014 92.764C234.174 92.764 233.496 93.016 232.98 93.52C232.464 94.024 232.206 94.69 232.206 95.518C232.206 96.358 232.464 97.042 232.98 97.57C233.508 98.098 234.186 98.362 235.014 98.362ZM246.552 100.126C245.58 100.126 244.704 99.916 243.924 99.496C243.144 99.076 242.532 98.494 242.088 97.75C241.656 96.994 241.44 96.142 241.44 95.194C241.44 94.246 241.656 93.4 242.088 92.656C242.532 91.912 243.144 91.33 243.924 90.91C244.704 90.49 245.58 90.28 246.552 90.28C247.536 90.28 248.418 90.49 249.198 90.91C249.978 91.33 250.584 91.912 251.016 92.656C251.46 93.4 251.682 94.246 251.682 95.194C251.682 96.142 251.46 96.994 251.016 97.75C250.584 98.494 249.978 99.076 249.198 99.496C248.418 99.916 247.536 100.126 246.552 100.126ZM246.552 98.2C247.38 98.2 248.064 97.924 248.604 97.372C249.144 96.82 249.414 96.094 249.414 95.194C249.414 94.294 249.144 93.568 248.604 93.016C248.064 92.464 247.38 92.188 246.552 92.188C245.724 92.188 245.04 92.464 244.5 93.016C243.972 93.568 243.708 94.294 243.708 95.194C243.708 96.094 243.972 96.82 244.5 97.372C245.04 97.924 245.724 98.2 246.552 98.2ZM261.167 92.296H257.801V100H255.551V92.296H252.167V90.388H261.167V92.296ZM271.377 95.248C271.377 95.404 271.365 95.626 271.341 95.914H263.799C263.931 96.622 264.273 97.186 264.825 97.606C265.389 98.014 266.085 98.218 266.913 98.218C267.969 98.218 268.839 97.87 269.523 97.174L270.729 98.56C270.297 99.076 269.751 99.466 269.091 99.73C268.431 99.994 267.687 100.126 266.859 100.126C265.803 100.126 264.873 99.916 264.069 99.496C263.265 99.076 262.641 98.494 262.197 97.75C261.765 96.994 261.549 96.142 261.549 95.194C261.549 94.258 261.759 93.418 262.179 92.674C262.611 91.918 263.205 91.33 263.961 90.91C264.717 90.49 265.569 90.28 266.517 90.28C267.453 90.28 268.287 90.49 269.019 90.91C269.763 91.318 270.339 91.9 270.747 92.656C271.167 93.4 271.377 94.264 271.377 95.248ZM266.517 92.08C265.797 92.08 265.185 92.296 264.681 92.728C264.189 93.148 263.889 93.712 263.781 94.42H269.235C269.139 93.724 268.845 93.16 268.353 92.728C267.861 92.296 267.249 92.08 266.517 92.08Z" fill="#FFD600"/>
</svg>
